<svg width="300" height="300" viewBox="0 0 300 300" fill="none" xmlns="http://www.w3.org/2000/svg">
<path d="M30.0272 297H7.75513V257.27H14.1932V291.258H30.0272V297ZM55.9885 276.932V290.156C56.0272 291.007 56.2398 291.645 56.6265 292.07C57.0519 292.457 57.6899 292.708 58.5405 292.824L58.3665 297.638C55.0412 297.638 52.4699 296.923 50.6525 295.492C47.5592 296.923 44.4465 297.638 41.3145 297.638C35.5532 297.638 32.6725 294.564 32.6725 288.416C32.6725 285.477 33.4458 283.351 34.9925 282.036C36.5778 280.721 38.9945 279.929 42.2425 279.658L49.7245 279.02V276.932C49.7245 275.385 49.3765 274.303 48.6805 273.684C48.0232 273.065 47.0372 272.756 45.7225 272.756C43.2478 272.756 40.1545 272.911 36.4425 273.22L34.5865 273.336L34.3545 268.87C38.5692 267.865 42.4358 267.362 45.9545 267.362C49.5119 267.362 52.0639 268.135 53.6105 269.682C55.1959 271.19 55.9885 273.607 55.9885 276.932ZM42.9965 284.124C40.3285 284.356 38.9945 285.806 38.9945 288.474C38.9945 291.142 40.1738 292.476 42.5325 292.476C44.4658 292.476 46.5152 292.167 48.6805 291.548L49.7245 291.2V283.486L42.9965 284.124ZM70.247 297H63.925V268H70.189V269.798C73.0117 268.174 75.6797 267.362 78.193 267.362C82.0597 267.362 84.689 268.464 86.081 270.668C87.5117 272.833 88.227 276.429 88.227 281.456V297H81.963V281.63C81.963 278.498 81.615 276.275 80.919 274.96C80.2617 273.645 78.889 272.988 76.801 272.988C74.829 272.988 72.9343 273.375 71.117 274.148L70.247 274.496V297ZM119.251 255.936V297H112.987V295.492C110.164 296.923 107.574 297.638 105.215 297.638C101.426 297.638 98.6418 296.497 96.8631 294.216C95.1231 291.935 94.2531 288.107 94.2531 282.732C94.2531 277.357 95.2198 273.452 97.1531 271.016C99.1251 268.58 102.18 267.362 106.317 267.362C107.709 267.362 109.913 267.613 112.929 268.116V255.936H119.251ZM111.943 290.968L112.929 290.562V273.394C110.609 273.007 108.463 272.814 106.491 272.814C102.586 272.814 100.633 276.062 100.633 282.558C100.633 286.115 101.078 288.59 101.967 289.982C102.895 291.335 104.345 292.012 106.317 292.012C108.289 292.012 110.164 291.664 111.943 290.968Z" fill="#006666"/>
<path d="M162.68 297H140.408V257.27H146.846V291.258H162.68V297ZM187.829 291.78L189.453 291.606L189.569 296.304C185.161 297.193 181.256 297.638 177.853 297.638C173.561 297.638 170.468 296.459 168.573 294.1C166.717 291.741 165.789 287.971 165.789 282.79C165.789 272.505 169.984 267.362 178.375 267.362C186.495 267.362 190.555 271.789 190.555 280.644L190.149 285.168H172.169C172.208 287.565 172.73 289.325 173.735 290.446C174.74 291.567 176.616 292.128 179.361 292.128C182.106 292.128 184.929 292.012 187.829 291.78ZM184.349 280.296C184.349 277.435 183.885 275.443 182.957 274.322C182.068 273.162 180.54 272.582 178.375 272.582C176.21 272.582 174.624 273.181 173.619 274.38C172.652 275.579 172.15 277.551 172.111 280.296H184.349ZM218.094 276.932V290.156C218.133 291.007 218.345 291.645 218.732 292.07C219.157 292.457 219.795 292.708 220.646 292.824L220.472 297.638C217.147 297.638 214.575 296.923 212.758 295.492C209.665 296.923 206.552 297.638 203.42 297.638C197.659 297.638 194.778 294.564 194.778 288.416C194.778 285.477 195.551 283.351 197.098 282.036C198.683 280.721 201.1 279.929 204.348 279.658L211.83 279.02V276.932C211.83 275.385 211.482 274.303 210.786 273.684C210.129 273.065 209.143 272.756 207.828 272.756C205.353 272.756 202.26 272.911 198.548 273.22L196.692 273.336L196.46 268.87C200.675 267.865 204.541 267.362 208.06 267.362C211.617 267.362 214.169 268.135 215.716 269.682C217.301 271.19 218.094 273.607 218.094 276.932ZM205.102 284.124C202.434 284.356 201.1 285.806 201.1 288.474C201.1 291.142 202.279 292.476 204.638 292.476C206.571 292.476 208.621 292.167 210.786 291.548L211.83 291.2V283.486L205.102 284.124ZM246.156 273.974C241.594 273.355 238.288 273.046 236.238 273.046C234.189 273.046 232.758 273.297 231.946 273.8C231.173 274.264 230.786 275.018 230.786 276.062C230.786 277.106 231.212 277.841 232.062 278.266C232.952 278.691 235.001 279.194 238.21 279.774C241.458 280.315 243.759 281.185 245.112 282.384C246.466 283.583 247.142 285.709 247.142 288.764C247.142 291.819 246.156 294.061 244.184 295.492C242.251 296.923 239.409 297.638 235.658 297.638C233.3 297.638 230.322 297.309 226.726 296.652L224.928 296.362L225.16 291.084C229.8 291.703 233.145 292.012 235.194 292.012C237.244 292.012 238.694 291.761 239.544 291.258C240.434 290.755 240.878 289.924 240.878 288.764C240.878 287.604 240.453 286.811 239.602 286.386C238.79 285.922 236.799 285.439 233.628 284.936C230.496 284.395 228.196 283.563 226.726 282.442C225.257 281.321 224.522 279.271 224.522 276.294C224.522 273.317 225.528 271.093 227.538 269.624C229.588 268.155 232.198 267.42 235.368 267.42C237.843 267.42 240.878 267.729 244.474 268.348L246.272 268.696L246.156 273.974ZM273.866 291.78L275.49 291.606L275.606 296.304C271.198 297.193 267.293 297.638 263.89 297.638C259.598 297.638 256.505 296.459 254.61 294.1C252.754 291.741 251.826 287.971 251.826 282.79C251.826 272.505 256.021 267.362 264.412 267.362C272.532 267.362 276.592 271.789 276.592 280.644L276.186 285.168H258.206C258.245 287.565 258.767 289.325 259.772 290.446C260.777 291.567 262.653 292.128 265.398 292.128C268.143 292.128 270.966 292.012 273.866 291.78ZM270.386 280.296C270.386 277.435 269.922 275.443 268.994 274.322C268.105 273.162 266.577 272.582 264.412 272.582C262.247 272.582 260.661 273.181 259.656 274.38C258.689 275.579 258.187 277.551 258.148 280.296H270.386ZM282.671 297V268H288.935V271.48C292.222 269.353 295.508 267.981 298.795 267.362V273.684C295.47 274.341 292.628 275.192 290.269 276.236L288.993 276.758V297H282.671Z" fill="#006600"/>
<path d="M202.098 52H153.147V248.656H202.098V52Z" fill="#006666"/>
<path d="M153.147 199.492V248.656H300V199.492H153.147Z" fill="#006666"/>
<path d="M97.902 248.656H146.853L146.853 52H97.902L97.902 248.656Z" fill="#006600"/>
<path d="M146.853 101.164V52L3.05176e-05 52V101.164H146.853Z" fill="#006600"/>
</svg>
