<svg width="361" height="800" viewBox="0 0 361 800" fill="none" xmlns="http://www.w3.org/2000/svg">
<rect x="0.5" width="360" height="800" rx="16" fill="#EC441E"/>
<path d="M136.374 363.91L151.19 378.237C153.166 380.15 155.686 381.353 158.377 381.668C161.068 381.982 163.785 381.391 166.124 379.983L225.625 344.264L218.315 335.01C216.414 332.612 213.744 330.995 210.789 330.451C207.834 329.908 204.788 330.474 202.202 332.047L184.753 342.641L161.172 334.523L154.688 337.405C154.203 337.62 153.778 337.957 153.452 338.386C153.126 338.815 152.91 339.322 152.824 339.86C152.738 340.397 152.785 340.949 152.959 341.463C153.134 341.978 153.431 342.439 153.823 342.803L165.888 354.006L154.884 360.5L143.88 355.629L137.278 358.552C136.797 358.765 136.376 359.098 136.052 359.522C135.728 359.946 135.511 360.446 135.421 360.978C135.331 361.51 135.372 362.056 135.538 362.568C135.704 363.08 135.991 363.541 136.374 363.91V363.91Z" stroke="white" stroke-width="8.35135" stroke-linecap="round" stroke-linejoin="round"/>
<path d="M122.628 432.75V406.568H133.546C135.506 406.568 137.146 406.845 138.468 407.399C139.797 407.953 140.794 408.729 141.459 409.726C142.132 410.723 142.469 411.878 142.469 413.19C142.469 414.188 142.26 415.078 141.843 415.862C141.425 416.638 140.85 417.281 140.117 417.793C139.384 418.304 138.536 418.662 137.573 418.866V419.122C138.629 419.173 139.605 419.459 140.5 419.979C141.404 420.499 142.128 421.223 142.673 422.152C143.219 423.072 143.492 424.163 143.492 425.425C143.492 426.831 143.134 428.088 142.418 429.196C141.702 430.295 140.666 431.165 139.311 431.804C137.956 432.435 136.311 432.75 134.377 432.75H122.628ZM128.956 427.649H132.868C134.24 427.649 135.25 427.389 135.898 426.869C136.554 426.349 136.882 425.625 136.882 424.696C136.882 424.023 136.725 423.443 136.409 422.957C136.094 422.463 135.646 422.084 135.067 421.82C134.487 421.547 133.793 421.411 132.983 421.411H128.956V427.649ZM128.956 417.332H132.459C133.149 417.332 133.763 417.217 134.3 416.987C134.837 416.757 135.254 416.425 135.553 415.99C135.86 415.555 136.013 415.031 136.013 414.418C136.013 413.54 135.702 412.849 135.08 412.347C134.458 411.844 133.618 411.592 132.561 411.592H128.956V417.332ZM146.534 432.75V413.114H152.786V432.75H146.534ZM149.666 410.825C148.789 410.825 148.034 410.536 147.404 409.956C146.773 409.368 146.458 408.661 146.458 407.834C146.458 407.016 146.773 406.317 147.404 405.737C148.034 405.149 148.789 404.855 149.666 404.855C150.553 404.855 151.307 405.149 151.929 405.737C152.56 406.317 152.875 407.016 152.875 407.834C152.875 408.661 152.56 409.368 151.929 409.956C151.307 410.536 150.553 410.825 149.666 410.825ZM167.925 413.114V417.716H155.295V413.114H167.925ZM157.928 432.75V412.116C157.928 410.599 158.214 409.342 158.785 408.345C159.356 407.34 160.148 406.59 161.162 406.095C162.177 405.592 163.349 405.341 164.678 405.341C165.547 405.341 166.366 405.409 167.133 405.545C167.908 405.673 168.483 405.788 168.858 405.891L167.861 410.467C167.631 410.391 167.35 410.327 167.018 410.276C166.694 410.224 166.387 410.199 166.097 410.199C165.364 410.199 164.861 410.361 164.589 410.685C164.316 411.009 164.18 411.452 164.18 412.014V432.75H157.928ZM170.933 432.75V413.114H177.005V416.693H177.21C177.568 415.398 178.151 414.435 178.961 413.804C179.771 413.165 180.713 412.845 181.786 412.845C182.076 412.845 182.374 412.866 182.681 412.909C182.988 412.943 183.274 412.999 183.538 413.075V418.509C183.24 418.406 182.847 418.325 182.362 418.266C181.884 418.206 181.458 418.176 181.083 418.176C180.342 418.176 179.673 418.342 179.076 418.675C178.488 418.999 178.024 419.455 177.683 420.043C177.35 420.622 177.184 421.304 177.184 422.088V432.75H170.933ZM194.232 433.121C192.169 433.121 190.396 432.699 188.914 431.855C187.439 431.003 186.301 429.818 185.5 428.301C184.708 426.776 184.311 425.007 184.311 422.996C184.311 420.976 184.708 419.207 185.5 417.69C186.301 416.165 187.439 414.98 188.914 414.136C190.396 413.284 192.169 412.858 194.232 412.858C196.294 412.858 198.063 413.284 199.537 414.136C201.02 414.98 202.158 416.165 202.95 417.69C203.752 419.207 204.152 420.976 204.152 422.996C204.152 425.007 203.752 426.776 202.95 428.301C202.158 429.818 201.02 431.003 199.537 431.855C198.063 432.699 196.294 433.121 194.232 433.121ZM194.27 428.403C195.02 428.403 195.655 428.173 196.175 427.713C196.695 427.253 197.091 426.614 197.364 425.795C197.645 424.977 197.786 424.031 197.786 422.957C197.786 421.866 197.645 420.912 197.364 420.094C197.091 419.276 196.695 418.636 196.175 418.176C195.655 417.716 195.02 417.486 194.27 417.486C193.494 417.486 192.838 417.716 192.301 418.176C191.773 418.636 191.368 419.276 191.087 420.094C190.814 420.912 190.678 421.866 190.678 422.957C190.678 424.031 190.814 424.977 191.087 425.795C191.368 426.614 191.773 427.253 192.301 427.713C192.838 428.173 193.494 428.403 194.27 428.403ZM224.498 419.109L218.758 419.263C218.698 418.854 218.536 418.491 218.272 418.176C218.008 417.852 217.663 417.601 217.237 417.422C216.819 417.234 216.333 417.141 215.779 417.141C215.055 417.141 214.437 417.286 213.926 417.575C213.423 417.865 213.176 418.257 213.184 418.751C213.176 419.135 213.329 419.467 213.644 419.749C213.968 420.03 214.544 420.256 215.37 420.426L219.154 421.142C221.115 421.517 222.572 422.139 223.526 423.009C224.49 423.878 224.975 425.028 224.984 426.46C224.975 427.807 224.575 428.979 223.782 429.976C222.998 430.973 221.924 431.749 220.561 432.303C219.197 432.848 217.637 433.121 215.882 433.121C213.078 433.121 210.866 432.545 209.247 431.395C207.636 430.236 206.715 428.685 206.485 426.741L212.66 426.588C212.796 427.304 213.15 427.849 213.721 428.224C214.292 428.599 215.021 428.787 215.907 428.787C216.708 428.787 217.36 428.638 217.863 428.34C218.366 428.041 218.622 427.645 218.63 427.151C218.622 426.707 218.426 426.354 218.042 426.09C217.659 425.817 217.058 425.604 216.24 425.45L212.813 424.798C210.845 424.44 209.379 423.78 208.416 422.817C207.453 421.845 206.975 420.609 206.984 419.109C206.975 417.797 207.325 416.676 208.032 415.747C208.74 414.81 209.745 414.094 211.049 413.599C212.353 413.105 213.892 412.858 215.664 412.858C218.323 412.858 220.42 413.416 221.954 414.533C223.488 415.641 224.336 417.166 224.498 419.109ZM239.145 413.114V417.716H226.758V413.114H239.145ZM229.353 408.409H235.604V426.575C235.604 426.959 235.664 427.27 235.783 427.509C235.911 427.739 236.094 427.905 236.333 428.007C236.572 428.101 236.857 428.148 237.189 428.148C237.428 428.148 237.68 428.126 237.944 428.084C238.216 428.033 238.421 427.99 238.557 427.956L239.503 432.469C239.205 432.554 238.783 432.661 238.238 432.788C237.701 432.916 237.057 432.997 236.307 433.031C234.841 433.099 233.584 432.929 232.536 432.52C231.496 432.102 230.699 431.455 230.145 430.577C229.6 429.699 229.336 428.595 229.353 427.266V408.409ZM99.1261 468.75V442.568H110.044C112.004 442.568 113.645 442.845 114.966 443.399C116.295 443.953 117.292 444.729 117.957 445.726C118.63 446.723 118.967 447.878 118.967 449.19C118.967 450.188 118.758 451.078 118.341 451.862C117.923 452.638 117.348 453.281 116.615 453.793C115.882 454.304 115.034 454.662 114.071 454.866V455.122C115.127 455.173 116.103 455.459 116.998 455.979C117.902 456.499 118.626 457.223 119.172 458.152C119.717 459.072 119.99 460.163 119.99 461.425C119.99 462.831 119.632 464.088 118.916 465.196C118.2 466.295 117.164 467.165 115.809 467.804C114.454 468.435 112.809 468.75 110.875 468.75H99.1261ZM105.454 463.649H109.366C110.738 463.649 111.748 463.389 112.396 462.869C113.052 462.349 113.38 461.625 113.38 460.696C113.38 460.023 113.223 459.443 112.907 458.957C112.592 458.463 112.145 458.084 111.565 457.82C110.985 457.547 110.291 457.411 109.481 457.411H105.454V463.649ZM105.454 453.332H108.957C109.647 453.332 110.261 453.217 110.798 452.987C111.335 452.757 111.752 452.425 112.051 451.99C112.358 451.555 112.511 451.031 112.511 450.418C112.511 449.54 112.2 448.849 111.578 448.347C110.956 447.844 110.116 447.592 109.059 447.592H105.454V453.332ZM132.199 469.121C130.136 469.121 128.363 468.699 126.88 467.855C125.406 467.003 124.268 465.818 123.467 464.301C122.674 462.776 122.278 461.007 122.278 458.996C122.278 456.976 122.674 455.207 123.467 453.69C124.268 452.165 125.406 450.98 126.88 450.136C128.363 449.284 130.136 448.858 132.199 448.858C134.261 448.858 136.029 449.284 137.504 450.136C138.987 450.98 140.125 452.165 140.917 453.69C141.718 455.207 142.119 456.976 142.119 458.996C142.119 461.007 141.718 462.776 140.917 464.301C140.125 465.818 138.987 467.003 137.504 467.855C136.029 468.699 134.261 469.121 132.199 469.121ZM132.237 464.403C132.987 464.403 133.622 464.173 134.142 463.713C134.662 463.253 135.058 462.614 135.331 461.795C135.612 460.977 135.752 460.031 135.752 458.957C135.752 457.866 135.612 456.912 135.331 456.094C135.058 455.276 134.662 454.636 134.142 454.176C133.622 453.716 132.987 453.486 132.237 453.486C131.461 453.486 130.805 453.716 130.268 454.176C129.74 454.636 129.335 455.276 129.054 456.094C128.781 456.912 128.645 457.866 128.645 458.957C128.645 460.031 128.781 460.977 129.054 461.795C129.335 462.614 129.74 463.253 130.268 463.713C130.805 464.173 131.461 464.403 132.237 464.403ZM154.488 469.121C152.425 469.121 150.652 468.699 149.169 467.855C147.695 467.003 146.557 465.818 145.756 464.301C144.963 462.776 144.567 461.007 144.567 458.996C144.567 456.976 144.963 455.207 145.756 453.69C146.557 452.165 147.695 450.98 149.169 450.136C150.652 449.284 152.425 448.858 154.488 448.858C156.55 448.858 158.319 449.284 159.793 450.136C161.276 450.98 162.414 452.165 163.206 453.69C164.007 455.207 164.408 456.976 164.408 458.996C164.408 461.007 164.007 462.776 163.206 464.301C162.414 465.818 161.276 467.003 159.793 467.855C158.319 468.699 156.55 469.121 154.488 469.121ZM154.526 464.403C155.276 464.403 155.911 464.173 156.431 463.713C156.951 463.253 157.347 462.614 157.62 461.795C157.901 460.977 158.042 460.031 158.042 458.957C158.042 457.866 157.901 456.912 157.62 456.094C157.347 455.276 156.951 454.636 156.431 454.176C155.911 453.716 155.276 453.486 154.526 453.486C153.75 453.486 153.094 453.716 152.557 454.176C152.029 454.636 151.624 455.276 151.343 456.094C151.07 456.912 150.934 457.866 150.934 458.957C150.934 460.031 151.07 460.977 151.343 461.795C151.624 462.614 152.029 463.253 152.557 463.713C153.094 464.173 153.75 464.403 154.526 464.403ZM173.248 463.598L173.274 456.145H174.143L179.666 449.114H186.748L178.541 459.188H176.892L173.248 463.598ZM167.61 468.75V442.568H173.862V468.75H167.61ZM179.806 468.75L174.667 460.594L178.784 456.158L187.029 468.75H179.806ZM188.985 468.75V449.114H195.237V468.75H188.985ZM192.118 446.825C191.24 446.825 190.485 446.536 189.855 445.956C189.224 445.368 188.909 444.661 188.909 443.834C188.909 443.016 189.224 442.317 189.855 441.737C190.485 441.149 191.24 440.855 192.118 440.855C193.004 440.855 193.758 441.149 194.38 441.737C195.011 442.317 195.326 443.016 195.326 443.834C195.326 444.661 195.011 445.368 194.38 445.956C193.758 446.536 193.004 446.825 192.118 446.825ZM205.467 457.551V468.75H199.216V449.114H205.161V452.719H205.378C205.813 451.517 206.554 450.575 207.602 449.893C208.651 449.203 209.899 448.858 211.348 448.858C212.729 448.858 213.926 449.169 214.94 449.791C215.963 450.405 216.756 451.266 217.318 452.374C217.889 453.473 218.17 454.76 218.162 456.234V468.75H211.911V457.462C211.919 456.371 211.642 455.518 211.08 454.905C210.526 454.291 209.754 453.984 208.766 453.984C208.109 453.984 207.53 454.129 207.027 454.419C206.533 454.7 206.149 455.105 205.876 455.634C205.612 456.162 205.476 456.801 205.467 457.551ZM231.186 476.523C229.319 476.523 227.721 476.263 226.392 475.743C225.062 475.223 224.018 474.511 223.26 473.608C222.501 472.705 222.045 471.682 221.892 470.54L227.811 470.207C227.922 470.608 228.126 470.957 228.424 471.256C228.731 471.554 229.127 471.784 229.613 471.946C230.108 472.108 230.687 472.189 231.352 472.189C232.4 472.189 233.265 471.933 233.947 471.422C234.637 470.919 234.983 470.037 234.983 468.776V465.324H234.765C234.518 465.929 234.143 466.47 233.64 466.947C233.137 467.425 232.511 467.8 231.761 468.072C231.02 468.345 230.167 468.482 229.204 468.482C227.772 468.482 226.46 468.149 225.267 467.484C224.082 466.811 223.132 465.771 222.416 464.365C221.708 462.95 221.355 461.131 221.355 458.906C221.355 456.614 221.721 454.726 222.454 453.243C223.187 451.751 224.146 450.648 225.331 449.932C226.524 449.216 227.806 448.858 229.179 448.858C230.21 448.858 231.092 449.037 231.825 449.395C232.566 449.744 233.176 450.196 233.653 450.75C234.13 451.304 234.493 451.879 234.74 452.476H234.919V449.114H241.145V468.827C241.145 470.489 240.727 471.891 239.892 473.033C239.056 474.175 237.889 475.04 236.389 475.628C234.889 476.224 233.154 476.523 231.186 476.523ZM231.377 463.93C232.136 463.93 232.784 463.73 233.321 463.33C233.858 462.929 234.271 462.354 234.561 461.604C234.85 460.854 234.995 459.955 234.995 458.906C234.995 457.841 234.85 456.925 234.561 456.158C234.279 455.382 233.866 454.786 233.321 454.368C232.784 453.95 232.136 453.741 231.377 453.741C230.602 453.741 229.946 453.955 229.409 454.381C228.872 454.807 228.463 455.408 228.181 456.183C227.909 456.95 227.772 457.858 227.772 458.906C227.772 459.955 227.913 460.854 228.194 461.604C228.475 462.354 228.88 462.929 229.409 463.33C229.946 463.73 230.602 463.93 231.377 463.93ZM262.273 455.109L256.533 455.263C256.474 454.854 256.312 454.491 256.048 454.176C255.783 453.852 255.438 453.601 255.012 453.422C254.594 453.234 254.109 453.141 253.555 453.141C252.83 453.141 252.212 453.286 251.701 453.575C251.198 453.865 250.951 454.257 250.96 454.751C250.951 455.135 251.104 455.467 251.42 455.749C251.744 456.03 252.319 456.256 253.146 456.426L256.93 457.142C258.89 457.517 260.347 458.139 261.302 459.009C262.265 459.878 262.751 461.028 262.759 462.46C262.751 463.807 262.35 464.979 261.558 465.976C260.773 466.973 259.7 467.749 258.336 468.303C256.972 468.848 255.413 469.121 253.657 469.121C250.853 469.121 248.641 468.545 247.022 467.395C245.411 466.236 244.491 464.685 244.261 462.741L250.435 462.588C250.572 463.304 250.925 463.849 251.496 464.224C252.067 464.599 252.796 464.787 253.683 464.787C254.484 464.787 255.136 464.638 255.638 464.34C256.141 464.041 256.397 463.645 256.406 463.151C256.397 462.707 256.201 462.354 255.817 462.09C255.434 461.817 254.833 461.604 254.015 461.45L250.589 460.798C248.62 460.44 247.154 459.78 246.191 458.817C245.228 457.845 244.751 456.609 244.759 455.109C244.751 453.797 245.1 452.676 245.808 451.747C246.515 450.81 247.521 450.094 248.825 449.599C250.129 449.105 251.667 448.858 253.44 448.858C256.099 448.858 258.195 449.416 259.729 450.533C261.263 451.641 262.112 453.166 262.273 455.109Z" fill="white"/>
</svg>
