<svg width="15" height="20" viewBox="0 0 15 20" fill="none" xmlns="http://www.w3.org/2000/svg">
<path d="M1.83142 19H13.5094" stroke="#828282" stroke-linecap="round" stroke-linejoin="round"/>
<path d="M7.67043 10.6923C9.10368 10.6923 10.2656 9.45247 10.2656 7.92307C10.2656 6.39367 9.10368 5.15384 7.67043 5.15384C6.23719 5.15384 5.07532 6.39367 5.07532 7.92307C5.07532 9.45247 6.23719 10.6923 7.67043 10.6923Z" stroke="#828282" stroke-linecap="round" stroke-linejoin="round"/>
<path d="M14.1582 7.92308C14.1582 14.1538 7.67041 19 7.67041 19C7.67041 19 1.18262 14.1538 1.18262 7.92308C1.18262 6.08696 1.86615 4.32605 3.08285 3.02772C4.29955 1.72939 5.94974 1 7.67041 1C9.39108 1 11.0413 1.72939 12.258 3.02772C13.4747 4.32605 14.1582 6.08696 14.1582 7.92308V7.92308Z" stroke="#828282" stroke-linecap="round" stroke-linejoin="round"/>
</svg>
