<svg width="46" height="46" viewBox="0 0 46 46" fill="none" xmlns="http://www.w3.org/2000/svg">
<path d="M23 42C33.4934 42 42 33.4934 42 23C42 12.5066 33.4934 4 23 4C12.5066 4 4 12.5066 4 23C4 33.4934 12.5066 42 23 42Z" fill="#006600" stroke="#B3C8B3" stroke-width="8"/>
<path d="M20 24.2L20.846 25.046L22.4 23.498V30.8H23.6V23.498L25.154 25.046L26 24.2L23 21.2L20 24.2Z" fill="white"/>
<path d="M27.5001 26.6H27.2001V25.4H27.5001C28.2161 25.4287 28.9143 25.1717 29.4409 24.6856C29.9675 24.1995 30.2794 23.5241 30.3081 22.808C30.3367 22.0919 30.0797 21.3938 29.5936 20.8672C29.1075 20.3406 28.4321 20.0287 27.7161 20H27.2001L27.1401 19.508C27.0069 18.4979 26.5112 17.5706 25.7451 16.8988C24.9791 16.2271 23.9949 15.8567 22.9761 15.8567C21.9572 15.8567 20.9731 16.2271 20.207 16.8988C19.4409 17.5706 18.9452 18.4979 18.8121 19.508L18.8001 20H18.2841C17.568 20.0287 16.8926 20.3406 16.4065 20.8672C15.9204 21.3938 15.6634 22.0919 15.6921 22.808C15.7207 23.5241 16.0326 24.1995 16.5592 24.6856C17.0858 25.1717 17.784 25.4287 18.5001 25.4H18.8001V26.6H18.5001C17.5379 26.5939 16.612 26.2324 15.9003 25.5849C15.1885 24.9374 14.7413 24.0496 14.6445 23.0923C14.5478 22.135 14.8083 21.1758 15.376 20.3989C15.9437 19.6221 16.7786 19.0825 17.7201 18.884C17.9791 17.6759 18.6446 16.5932 19.6054 15.8165C20.5663 15.0398 21.7645 14.6161 23.0001 14.6161C24.2356 14.6161 25.4338 15.0398 26.3947 15.8165C27.3556 16.5932 28.021 17.6759 28.2801 18.884C29.2215 19.0825 30.0564 19.6221 30.6241 20.3989C31.1918 21.1758 31.4524 22.135 31.3556 23.0923C31.2588 24.0496 30.8116 24.9374 30.0999 25.5849C29.3882 26.2324 28.4622 26.5939 27.5001 26.6Z" fill="white"/>
</svg>
