<svg width="19" height="18" viewBox="0 0 19 18" fill="none" xmlns="http://www.w3.org/2000/svg">
<path d="M10.2871 16.6471C9.96522 16.8541 9.69646 17.018 9.50011 17.1347C9.30555 17.0197 9.03992 16.8585 8.72199 16.655C8.01838 16.2045 7.06309 15.5495 6.05684 14.7321C4.01831 13.0762 1.88019 10.8412 1.08605 8.36995C0.100096 5.29131 1.28896 1.97031 4.30045 1.00022L4.3008 1.00011C5.91768 0.478369 7.70611 0.78653 9.05046 1.79779C9.32041 2.00086 9.69281 1.9984 9.96006 1.79178C11.2162 0.820616 13.0753 0.481529 14.6927 1.00039C17.7053 1.97119 18.9001 5.29347 17.9154 8.37053L17.9143 8.3741C17.1481 10.8102 15.0136 13.0436 12.9659 14.7092C11.956 15.5306 10.9953 16.1916 10.2871 16.6471Z" stroke="#717171" stroke-width="1.5" stroke-linecap="round" stroke-linejoin="round"/>
<mask id="path-2-inside-1_234_46" fill="white">
<path fill-rule="evenodd" clip-rule="evenodd" d="M13.5021 3.70032C14.5722 4.04635 15.3284 5.00144 15.4194 6.12254Z"/>
</mask>
<path d="M13.9636 2.27307C13.1753 2.0182 12.3297 2.45058 12.0748 3.23882C11.82 4.02707 12.2523 4.87269 13.0406 5.12756L13.9636 2.27307ZM13.9243 6.24392C13.9913 7.06963 14.715 7.68466 15.5407 7.61762C16.3665 7.55059 16.9815 6.82688 16.9144 6.00117L13.9243 6.24392ZM13.0406 5.12756C13.5341 5.28715 13.8823 5.72707 13.9243 6.24392L16.9144 6.00117C16.7744 4.2758 15.6103 2.80555 13.9636 2.27307L13.0406 5.12756Z" fill="#717171" mask="url(#path-2-inside-1_234_46)"/>
</svg>
